<svg width="51" height="51" viewBox="0 0 51 51" fill="none" xmlns="http://www.w3.org/2000/svg">
<g clip-path="url(#clip0_122_14)">
<path d="M11.9909 44.1461C11.6968 45.2067 11.5324 45.5061 11.2368 46.4881C11.1542 46.8183 10.9743 47.1159 10.7205 47.3428C10.4668 47.5695 10.1507 47.7148 9.81343 47.7598C7.89186 48.0422 5.96811 48.3779 4.0138 48.101C2.22085 47.8461 1.07577 46.7214 0.986161 44.912C0.833612 41.8312 0.779881 38.7453 0.700469 35.6612C0.677135 34.7565 0.6652 33.8479 0.721867 32.9457C0.837161 31.1136 1.69634 30.1375 3.52574 30.013C5.53025 29.8757 7.54774 29.9093 9.5597 29.9067C10.3499 29.9057 10.8387 30.4334 11.1871 31.0842C11.3591 31.4053 11.4813 31.7526 11.6173 32.0646C12.8693 31.8881 14.0805 31.6653 15.3017 31.5563C17.5356 31.3571 19.7356 31.5955 21.816 32.4614C24.238 33.4702 26.7364 33.6855 29.3152 33.4389C29.9493 33.382 30.588 33.4026 31.2172 33.5006C33.2811 33.8144 34.2731 35.3465 33.7574 37.3553C33.7162 37.5153 33.6546 37.6691 33.5431 38.0071C34.2674 37.9546 34.9085 37.93 35.5444 37.8583C38.2689 37.55 40.8097 36.5793 43.368 35.6702C44.504 35.2667 45.6287 34.8183 46.7889 34.5006C47.4695 34.3269 48.1738 34.2649 48.8742 34.3171C50.1154 34.3955 50.6936 35.2975 50.3762 36.4904C50.1156 37.4708 49.5166 38.2189 48.7834 38.8826C46.6582 40.8042 44.1691 42.0871 41.4856 43.0242C37.7076 44.3434 33.8487 45.3318 29.8676 45.7932C24.588 46.4361 19.1578 46.4426 14.1274 44.7158C13.4095 44.4673 12.6623 44.3653 11.9909 44.1461ZM12.0279 42.2446C13.2436 42.5651 14.3701 42.8675 15.4985 43.1583C19.0267 44.0665 22.6134 44.5828 26.2529 44.3377C31.6842 43.972 36.8887 42.5704 41.9354 40.5699C43.8789 39.8148 45.6746 38.724 47.2405 37.3471C47.5815 37.0095 47.9019 36.6518 48.2003 36.2759L48.0327 36.0238C47.3103 36.2379 46.5793 36.4271 45.8672 36.6708C43.3954 37.5169 40.9482 38.4389 38.457 39.222C36.4903 39.8402 34.4627 40.094 32.3982 39.6465C32.1052 39.5991 31.8046 39.6459 31.5401 39.7804C28.9178 41.112 26.086 41.3518 23.2213 41.3673C22.5534 41.3361 21.8929 41.2148 21.2576 41.0065C21.157 40.9851 21.0621 40.9434 20.9783 40.8838C20.8946 40.8242 20.8238 40.7483 20.7707 40.6604C20.7174 40.5726 20.6827 40.4748 20.6685 40.373C20.6546 40.2712 20.6615 40.1675 20.6889 40.0685C20.7889 39.731 21.006 39.44 21.3013 39.2481C21.666 39.0775 22.0629 38.9861 22.4656 38.9797C23.5689 38.892 24.6754 38.8424 25.7807 38.7812C27.3297 38.6944 28.8634 38.4922 30.2813 37.8381C30.8562 37.5763 31.3699 37.1969 31.7895 36.7246C32.3034 36.1261 32.0297 35.5379 31.2405 35.4581C30.6052 35.413 29.9672 35.42 29.3331 35.4795C26.7252 35.6469 24.1721 35.4675 21.7395 34.4C21.278 34.2004 20.8052 34.0279 20.3234 33.8832C17.9066 33.1281 15.324 33.0818 12.8816 33.7497C11.9318 34.0046 11.9405 34.0457 11.9909 34.9987C12.0709 36.5391 12.1766 38.0793 12.2048 39.6208C12.2203 40.4524 12.0974 41.2863 12.0273 42.2449L12.0279 42.2446ZM9.2338 31.7993C7.62596 31.7993 6.09027 31.7844 4.55458 31.8038C3.17909 31.821 2.83615 32.1714 2.80615 33.5444C2.72929 37.0624 2.61458 40.5804 2.61007 44.0987C2.60831 45.5889 3.34831 46.0746 4.40596 45.9953C5.80831 45.8904 7.2099 45.7636 8.60637 45.5957C9.34304 45.5071 9.47284 45.2787 9.4597 44.5051C9.41649 43.87 9.4147 43.2326 9.45439 42.5971C9.82694 39.3455 9.56378 36.1004 9.40221 32.854C9.36419 32.4999 9.30782 32.1477 9.23323 31.7993H9.2338Z" style="fill: rgba(var(--color-primary, 0, 0, 0));"/>
<path d="M29.0197 14.8334C31.164 16.3004 31.9582 18.4681 32.1974 20.9387C32.6164 25.2671 30.0478 27.9638 27.0354 29.1152C24.5536 30.0646 22.0082 30.5466 19.3673 29.7713C16.3047 28.8722 14.4986 26.4158 14.3857 23.232C14.2445 19.2542 16.6294 15.6296 20.5391 14.032C22.9195 13.0604 27.5436 13.8238 29.0197 14.8334ZM21.7407 27.952C23.0372 28.1066 25.3966 27.5497 26.5642 27.0362C28.7185 26.0887 30.2966 24.3448 29.9299 21.1602C29.624 18.5041 28.2758 16.4808 25.7042 15.9482C24.3621 15.6704 21.7405 15.5457 20.4068 16.1116C17.4947 17.3469 16.3639 20.2685 16.5157 23.4613C16.6643 26.5832 19.81 27.722 21.7407 27.9524V27.952Z" style="fill: rgba(var(--color-primary, 0, 0, 0));"/>
<path d="M5.97943 36.1395C5.10669 36.1501 4.49373 35.5893 4.46255 34.7521C4.42706 33.7925 5.18371 32.9513 6.08724 32.9458C7.13626 32.9397 7.94686 33.5537 7.95373 34.3576C7.96098 35.2254 6.96061 36.1274 5.97943 36.1395Z" style="fill: rgba(var(--color-primary, 0, 0, 0));"/>
<path d="M23.7465 18.9772V21.3589C24.0938 21.4897 24.4185 21.5978 24.7316 21.7327C25.9634 22.2621 26.2663 23.4199 25.4588 24.4844C25.1255 24.9228 24.8636 25.1003 23.8826 25.5507C23.79 26.0213 23.6969 26.4846 23.6081 26.9491C23.5588 27.2079 23.4353 27.4083 23.1528 27.4148C22.8547 27.4219 22.75 27.1795 22.6969 26.9452C22.5973 26.5058 22.5292 26.0593 22.4388 25.5646C22.0783 25.4683 21.6855 25.3664 21.2947 25.2577C21.1055 25.2132 20.9202 25.1532 20.7408 25.0783C20.5851 25.0242 20.4549 24.9146 20.3751 24.7703C20.2953 24.6262 20.2714 24.4575 20.3081 24.2968C20.3716 23.985 20.6392 23.7879 21.0516 23.8148C21.5008 23.8442 21.9471 23.9205 22.3834 23.975C22.5655 23.4726 22.5865 23.1736 22.5069 22.3184C22.203 22.2044 21.8741 22.1039 21.5657 21.9611C20.3139 21.3839 20.0381 20.1335 20.9251 19.0762C21.2912 18.6158 21.7736 18.2615 22.3224 18.0499C22.4681 18.0108 22.5955 17.9224 22.6832 17.7998C22.7708 17.6772 22.8134 17.528 22.8034 17.3776C22.8065 17.1403 22.8581 16.9062 22.9551 16.6897C22.9969 16.62 23.0549 16.5613 23.1241 16.5188C23.1934 16.4762 23.2718 16.451 23.3528 16.4453C23.4314 16.4675 23.5034 16.5081 23.563 16.5637C23.6226 16.6194 23.6683 16.6884 23.6957 16.7652C23.75 17.0421 23.7794 17.3233 23.7839 17.6054C24.0822 17.6733 24.3767 17.7565 24.6663 17.8547C25.1287 18.0366 25.3475 18.3953 25.2912 18.8039C25.2412 19.1657 25.0445 19.288 24.7071 19.1394C24.412 19.01 24.1369 18.8174 23.7465 18.9772ZM22.6053 19.4494C21.9716 19.8253 21.6477 20.225 21.7647 20.5229C21.9045 20.8788 22.229 20.9684 22.6053 21.0174V19.4494ZM23.7892 23.913C24.2102 23.7575 24.5961 23.5717 24.5834 23.1452C24.5726 22.7875 24.1785 22.7138 23.8579 22.6656C23.8394 22.6628 23.8187 22.6793 23.7373 22.7097C23.7373 22.9587 23.7328 23.2313 23.7394 23.5036C23.7424 23.6228 23.7675 23.7417 23.7892 23.913Z" style="fill: rgba(var(--color-primary, 0, 0, 0));"/>
<path d="M39.781 8.12422V10.5062C40.1283 10.637 40.4528 10.745 40.7659 10.8787C41.9977 11.4081 42.3008 12.5662 41.4932 13.6307C41.1599 14.0689 40.8979 14.2464 39.9171 14.697C39.8246 15.1676 39.7312 15.4348 39.6426 15.8991C39.5932 16.1579 39.4697 16.3584 39.1873 16.365C38.8891 16.3719 38.7844 16.1297 38.7314 15.8954C38.6316 15.456 38.5638 15.2056 38.4732 14.7109C38.1126 14.6144 37.7201 14.5126 37.3291 14.404C37.1399 14.3594 36.9546 14.2993 36.7752 14.2244C36.6195 14.1703 36.4893 14.0606 36.4095 13.9163C36.3297 13.7721 36.3057 13.6035 36.3426 13.4428C36.4059 13.1313 36.6738 12.9342 37.0859 12.9611C37.5353 12.9903 37.9816 13.0667 38.4179 13.1213C38.5999 12.6189 38.6208 12.3197 38.5414 11.4646C38.2375 11.3505 37.9087 11.2501 37.5993 11.1073C36.3475 10.5301 36.0718 9.27971 36.9587 8.22245C37.3248 7.76204 37.8073 7.40773 38.3561 7.19616C38.5016 7.15693 38.6291 7.06851 38.7167 6.94593C38.8044 6.82336 38.8469 6.6742 38.8371 6.52381C38.8399 6.28655 38.8914 6.05247 38.9887 5.836C39.0304 5.76624 39.0883 5.70755 39.1577 5.66496C39.2269 5.62236 39.3054 5.5971 39.3865 5.59128C39.465 5.61355 39.5369 5.65422 39.5965 5.70991C39.6561 5.76559 39.7016 5.83471 39.7293 5.91149C39.7834 6.18842 39.813 6.46955 39.8177 6.75167C40.1159 6.81942 40.4104 6.90261 40.7001 7.00089C41.1622 7.18265 41.3812 7.5413 41.3248 7.94993C41.2748 8.31189 41.0781 8.43402 40.7406 8.2854C40.4465 8.15677 40.1712 7.96442 39.781 8.12422ZM38.6399 8.59638C38.0061 8.97245 37.682 9.37226 37.7991 9.6701C37.9389 10.0258 38.2634 10.1156 38.6399 10.1646V8.59638ZM39.8236 13.0603C40.2446 12.9048 40.6304 12.7187 40.6177 12.2923C40.6071 11.9346 40.2128 11.8609 39.8922 11.8128C39.8738 11.8101 39.853 11.8266 39.7716 11.8569C39.7716 12.106 39.7671 12.3785 39.7736 12.6507C39.7767 12.7701 39.802 12.8889 39.8236 13.0603Z" style="fill: rgba(var(--color-primary, 0, 0, 0));"/>
<path d="M44.8431 4.0097C46.9874 5.47675 47.7815 7.64444 48.0207 10.115C48.4398 14.4435 45.8711 17.1401 42.8588 18.2915C40.377 19.2407 37.8317 19.7229 35.1907 18.9476C32.1282 18.0485 30.3223 15.5919 30.2092 12.4081C30.068 8.4303 32.4527 4.80599 36.3625 3.20815C38.7429 2.23717 43.367 3.00068 44.8431 4.0097ZM37.5645 17.1283C38.8609 17.283 41.22 16.726 42.3878 16.2127C44.5423 15.2652 46.12 13.5211 45.7533 10.3366C45.4474 7.6807 44.0994 5.65715 41.5278 5.12479C40.1856 4.84695 37.5645 4.72224 36.2305 5.28813C33.3184 6.52342 32.1874 9.44503 32.3392 12.6376C32.4876 15.7599 35.6335 16.8988 37.5645 17.1291V17.1283Z" style="fill: rgba(var(--color-primary, 0, 0, 0));"/>
</g>
<defs>
<clipPath id="clip0_122_14">
<rect width="50" height="45.4902" fill="white" transform="translate(0.5 2.75491)"/>
</clipPath>
</defs>
</svg>
