<svg width="51" height="51" viewBox="0 0 51 51" fill="none" xmlns="http://www.w3.org/2000/svg">
<g clip-path="url(#clip0_122_6)">
<path d="M36.1017 26.9485C37.464 26.8773 38.7468 26.6468 39.9932 26.7737C45.6254 27.3469 49.8316 31.6365 50.4038 37.2587C50.9187 42.3187 48.3926 46.4821 43.6422 48.3224C40.1032 49.6935 36.5333 49.9103 32.9658 48.4074C30.4874 47.3632 28.5619 45.7231 27.4604 43.2189C27.4055 43.0947 27.3279 42.9788 27.2455 42.8315C26.2019 42.8874 25.1791 42.9447 24.1561 42.9971C18.5218 43.2832 12.8882 43.5868 7.2525 43.8409C5.73071 43.9094 4.20268 43.8359 2.67654 43.8051C2.32266 43.7956 1.97177 43.7374 1.63381 43.6323C0.63464 43.3254 0.302705 42.6368 0.65312 41.6638C2.1577 37.4166 4.47264 33.5001 7.47011 30.1307C11.1274 26.0335 15.5898 23.4496 21.1216 22.8838C24.9061 22.4969 28.5405 23.1307 32.0345 24.6013C32.7936 24.8958 33.5337 25.2368 34.2507 25.6225C34.8909 26.0312 35.5088 26.4738 36.1017 26.9485ZM33.2953 28.4227C30.3463 27.1021 27.4951 26.0132 24.3372 25.8679C19.9438 25.6658 15.9683 26.7681 12.4954 29.4668C8.76329 32.3672 6.02924 36.0925 3.81866 40.225C3.72295 40.4371 3.64167 40.6552 3.57532 40.8781C5.5803 41.0592 25.5521 39.7005 26.8136 39.3005C26.8449 39.1532 26.8918 38.9851 26.915 38.8142C27.2246 36.7093 27.9219 34.6798 28.9714 32.8278C29.3237 32.2159 29.7625 31.6578 30.2743 31.1707C31.2032 30.2594 32.198 29.4135 33.2957 28.4227H33.2953ZM38.2206 45.7407C39.9289 45.73 41.6152 45.3533 43.1652 44.6363C44.3416 44.1147 45.327 43.2421 45.9855 42.1385C47.5109 39.5697 47.2171 35.4152 45.2872 33.1315C43.7495 31.312 41.8279 30.0551 39.4034 29.8561C36.5909 29.6254 34.2009 30.6178 32.5764 32.9405C30.9492 35.2672 30.5569 37.961 30.8559 40.7463C30.9951 41.8858 31.5652 42.9294 32.4497 43.664C34.0951 45.1232 36.0507 45.7285 38.221 45.7407H38.2206Z" style="fill: rgba(var(--color-primary, 0, 0, 0));"/>
<path d="M21.7907 20.4215C19.3789 20.3228 17.0165 19.8237 14.9399 18.3541C12.5943 16.6941 10.7424 13.6055 12.1964 9.74874C12.5628 8.75474 13.0592 7.8134 13.6727 6.94904C14.5115 5.80667 15.4373 4.73046 16.442 3.73004C18.7034 1.45383 22.5625 0.889544 25.2878 2.55718C28.8623 4.74379 30.9394 8.0277 31.3477 12.1723C31.5903 14.6322 30.4919 16.7284 28.5322 18.2926C26.5882 19.844 24.3006 20.3663 21.7907 20.4215ZM21.4672 17.285C22.9762 17.2472 24.443 17.0668 25.7575 16.2596C27.5459 15.1617 28.2679 13.3549 27.7309 11.3372C27.312 9.75997 26.4506 8.43518 25.343 7.265C24.2394 6.09917 22.9484 5.31158 21.2685 5.26088C19.419 5.20501 18.0192 6.19518 16.7308 7.27369C15.7868 8.06395 15.2148 9.21013 14.8298 10.4122C13.9758 13.0776 14.9101 15.2454 17.4495 16.4545C18.7234 17.0623 20.0864 17.2273 21.4672 17.2849V17.285Z" style="fill: rgba(var(--color-primary, 0, 0, 0));"/>
<path d="M40.2461 39.0825C40.2461 40.087 40.2621 40.9 40.2386 41.712C40.2334 42.0644 40.1768 42.4139 40.0708 42.7501C40.004 42.9742 39.865 43.1702 39.6753 43.3078C39.4857 43.4454 39.2558 43.517 39.0214 43.5114C38.7868 43.5249 38.5546 43.4582 38.3629 43.3227C38.1712 43.1869 38.0316 42.9904 37.9668 42.765C37.8587 42.3576 37.804 41.9379 37.804 41.5166C37.7797 40.7475 37.7971 39.9769 37.7971 39.091C36.8536 39.091 35.9743 39.1148 35.0973 39.0823C34.5314 39.0695 33.9681 39.0006 33.4158 38.8773C33.1731 38.8228 32.9556 38.6887 32.7986 38.4963C32.6417 38.3039 32.554 38.0644 32.55 37.8163C32.5461 37.5682 32.6258 37.3261 32.7766 37.1287C32.9274 36.9313 33.1403 36.7904 33.3812 36.7283C33.8239 36.6077 34.2803 36.5431 34.7392 36.5363C35.7231 36.5088 36.7083 36.5278 37.7316 36.5278C37.7316 35.5292 37.7272 34.6538 37.7339 33.779C37.7183 33.4624 37.7378 33.1451 37.7919 32.8329C37.8957 32.3929 38.1556 32.0579 38.6693 32.0528C38.8861 32.037 39.1013 32.0993 39.276 32.228C39.4509 32.3569 39.5735 32.544 39.622 32.7553C39.7556 33.3403 39.8505 33.9335 39.9058 34.5311C39.9795 35.1546 40.0173 35.7822 40.0718 36.4326C40.6913 36.4326 41.2166 36.4475 41.7405 36.4285C42.3434 36.4067 42.9451 36.326 43.5473 36.3223C44.5094 36.3165 45.1162 36.7794 45.1693 37.5049C45.2189 38.1843 44.7218 38.7403 43.8293 38.8868C43.1276 38.9863 42.4212 39.05 41.7131 39.0776C41.2606 39.1047 40.8054 39.0825 40.2461 39.0825Z" style="fill: rgba(var(--color-primary, 0, 0, 0));"/>
</g>
<defs>
<clipPath id="clip0_122_6">
<rect width="50" height="48.2143" fill="white" transform="translate(0.5 1.39286)"/>
</clipPath>
</defs>
</svg>
