<svg width="51" height="51" viewBox="0 0 51 51" fill="none" xmlns="http://www.w3.org/2000/svg">
<path d="M46.8866 15.2093C45.3602 15.2093 40.7626 15.191 40.2026 15.1912L38.9588 14.1001C37.9826 13.2444 36.9998 12.1702 36.0205 11.3047C35.5632 10.9004 35.1007 10.5027 34.6375 10.1046C33.0379 8.72848 31.3839 7.30543 30.0064 5.65246C29.8034 5.41506 29.54 5.23699 29.2443 5.13706C28.9483 5.03713 28.6309 5.01905 28.3256 5.0848C28.1102 5.1036 27.903 5.17693 27.7236 5.29778C27.5443 5.41863 27.3988 5.58305 27.3005 5.77567C27.2188 5.97994 27.1896 6.20145 27.2158 6.41989C27.2417 6.63832 27.3222 6.8467 27.4494 7.02608C27.5532 7.17956 27.6754 7.32003 27.8128 7.44424L27.8411 7.47188C28.9728 8.58082 30.1049 9.68943 31.2373 10.7978C32.6002 12.1325 33.9634 13.68 35.3258 15.0155C35.4477 15.1351 35.5673 15.2633 35.6911 15.3985L15.3732 16.1857C15.4139 16.1379 15.4456 16.1027 15.4779 16.0706L18.2411 13.3471C20.0683 11.5457 21.8945 9.74386 23.7198 7.94145C23.9968 7.68135 24.2432 7.39026 24.4541 7.07398C24.7879 6.54206 24.759 6.00616 24.3745 5.60446C24.2039 5.42265 23.9764 5.30455 23.7294 5.26973C23.4826 5.2349 23.2313 5.28537 23.0171 5.41289C22.7405 5.54299 22.4783 5.70203 22.2351 5.88735C21.8879 6.1682 21.5395 6.44773 21.1898 6.72574C20.1605 7.54786 19.096 8.39805 18.0939 9.28869C16.2622 10.9163 14.4485 12.6231 12.6945 14.2742L12.3154 14.631C11.9422 14.9821 11.6043 15.5727 11.213 16.0102C11.0377 16.2061 9.24897 16.2336 9.24897 16.2336C7.65088 16.2613 5.99173 16.2899 4.3328 16.3202C4.23195 16.3221 4.13067 16.3223 4.02961 16.3223C3.72097 16.3151 3.41224 16.331 3.10599 16.3699C1.94365 16.5469 0.751305 17.1785 0.604284 18.3936C0.481093 19.4117 0.946412 20.058 2.24939 20.6914C2.25428 20.6955 2.25939 20.7001 2.26492 20.7056C2.41258 21.4495 2.55847 22.1954 2.70258 22.9433C3.0379 24.6695 3.38344 26.4541 3.76641 28.2055C4.04301 29.4709 4.34875 30.7506 4.64514 31.9883C5.03067 33.5996 5.42939 35.2649 5.76492 36.9141C6.14344 38.807 6.72112 40.6549 7.48833 42.4264C8.25429 44.1894 9.63024 45.1889 11.5798 45.397C13.8762 45.6426 16.1219 45.8651 18.349 45.8804C18.7983 45.8836 19.2479 45.8851 19.6977 45.8851C23.3128 45.8851 26.9039 45.7853 30.0394 45.6894C32.2096 45.6228 34.4939 45.4781 37.0202 45.247C40.2777 44.9492 42.4264 43.3783 43.5896 40.4443C44.6919 37.6632 45.3641 34.73 46.0141 31.8938C46.0924 31.5521 46.1709 31.2106 46.2498 30.8689C46.8258 28.3796 47.3705 25.84 47.8975 23.3838C48.1228 22.3328 48.3494 21.2816 48.5771 20.2303C49.7296 19.7427 50.37 18.7586 50.3843 17.4478C50.4011 16.0208 49.3298 15.2093 46.8866 15.2093ZM5.23982 20.8525C5.24833 20.8464 5.25641 20.8404 5.2645 20.8353C5.67195 20.8321 6.07982 20.8257 6.48769 20.8193C7.50897 20.8033 8.56365 20.787 9.59748 20.8215C19.0813 21.1387 28.7509 20.8908 38.1024 20.6512C40.5211 20.5891 43.0192 20.5251 45.4892 20.4713C45.4417 20.6896 45.3958 20.9023 45.3513 21.1096C45.2236 21.7079 45.1015 22.273 44.9643 22.83L44.4939 24.7423C43.5047 28.7636 42.4817 32.92 41.4513 37.0023C41.1249 38.3604 40.5771 39.6555 39.8298 40.8355C39.3285 41.6141 38.6949 42.0483 37.8924 42.163C37.6228 42.2017 37.3534 42.2409 37.0839 42.2806C35.6532 42.4902 34.1739 42.7062 32.7175 42.7755C29.2364 42.9394 26.0617 43.0126 23.0115 42.9994C20.8658 42.99 18.6822 42.8838 16.5702 42.7811C15.8843 42.7477 15.1985 42.7153 14.5128 42.6841C13.82 42.6536 13.1147 42.5921 12.4326 42.533C12.1489 42.5083 11.8657 42.4843 11.583 42.4611C10.68 42.3889 10.1854 41.9504 9.97939 41.0355C9.51705 38.9875 9.02003 36.9117 8.53961 34.9045C8.36031 34.1551 8.18146 33.4055 8.00301 32.6562L7.26939 29.5689C6.58982 26.71 5.91137 23.8508 5.23407 20.9912C5.22954 20.945 5.23148 20.8983 5.23982 20.8525Z" style="fill: rgba(var(--color-primary, 0, 0, 0));"/>
<path d="M11.9078 27.9504C12.7874 30.8653 13.6061 33.5589 14.4108 36.1866C14.4996 36.4791 14.6183 36.7615 14.765 37.0296C15.0486 37.5442 15.4559 37.8232 15.8982 37.8232C16.022 37.8225 16.1448 37.8017 16.2618 37.7613C16.972 37.5213 17.0437 36.8821 17.0554 36.3019V36.277L17.0501 36.2527C17.0359 36.1864 17.0227 36.1098 17.0076 36.0264C16.9704 35.7732 16.911 35.5234 16.8299 35.2806C15.8916 32.6862 14.9248 30.0532 13.9897 27.5068L13.764 26.8917C13.7065 26.7413 13.6326 26.5974 13.5437 26.4632C13.4347 26.261 13.2593 26.1028 13.0471 26.0149C12.8349 25.927 12.5989 25.9148 12.3789 25.9806C11.894 26.1155 11.6603 26.4989 11.7214 27.0602C11.7561 27.3621 11.8185 27.66 11.9078 27.9504Z" style="fill: rgba(var(--color-primary, 0, 0, 0));"/>
<path d="M32.236 36.9751C32.3754 37.027 32.5224 37.0542 32.6709 37.0555C32.8616 37.0506 33.0484 36.9995 33.215 36.907C33.3818 36.8144 33.5235 36.6827 33.6284 36.5236C33.8363 36.244 34.0022 35.9359 34.1214 35.6087C35.1697 32.6989 36.015 30.3166 36.7809 28.1112C36.9039 27.767 36.9352 27.3968 36.8718 27.0368C36.8145 26.7519 36.566 26.3155 36.2484 26.2369C35.8799 26.146 35.4454 26.3402 35.2188 26.4644C35.019 26.6138 34.8745 26.8255 34.8084 27.0661L34.7882 27.1166C33.965 29.1404 32.8826 31.8074 31.8094 34.4921C31.7105 34.754 31.6277 35.0219 31.5618 35.294C31.5326 35.4046 31.5043 35.5125 31.4741 35.6151L31.4631 35.6529L31.4665 35.6925C31.5099 36.1944 31.6075 36.7483 32.236 36.9751Z" style="fill: rgba(var(--color-primary, 0, 0, 0));"/>
<path d="M23.0454 30.3837L23.0631 30.5934C23.0631 30.8732 23.0618 31.1532 23.0588 31.4332C23.0537 32.2677 23.0484 33.1307 23.0739 33.9803C23.1009 34.6062 23.1811 35.2288 23.3139 35.8411C23.3507 36.0913 23.4788 36.3192 23.6733 36.4809C23.8677 36.6426 24.1152 36.7266 24.368 36.7171C24.4105 36.7171 24.4545 36.7149 24.4992 36.7111C24.7692 36.6958 25.0239 36.5807 25.2139 36.3883C25.4041 36.196 25.5158 35.9398 25.528 35.6698C25.5728 35.3349 25.5909 34.9973 25.582 34.6596C25.4931 32.3854 25.4118 30.333 25.3054 28.2498C25.2628 27.4224 25.1716 26.5868 25.0824 25.7792L25.079 25.7475C25.0697 25.511 24.9673 25.2879 24.7941 25.1267C24.6209 24.9654 24.3909 24.8793 24.1543 24.8869C23.9199 24.865 23.6858 24.9346 23.5011 25.081C23.3165 25.2275 23.1954 25.4396 23.1633 25.673C23.0886 26.0775 23.0507 26.4881 23.0501 26.8994C23.0403 27.7337 23.042 28.5803 23.0437 29.4009L23.0454 30.3837Z" style="fill: rgba(var(--color-primary, 0, 0, 0));"/>
</svg>
