<svg width="51" height="51" viewBox="0 0 51 51" fill="none" xmlns="http://www.w3.org/2000/svg">
<g clip-path="url(#clip0_122_25)">
<path d="M20.3134 19.2208C19.4123 19.0505 18.5071 18.8975 17.6101 18.7057C16.5592 18.4916 15.5666 18.0541 14.6995 17.4229C13.9452 16.8677 13.4099 16.1557 13.4149 15.2117C13.4235 13.558 13.5147 11.9044 13.5989 10.252C13.6308 9.62701 13.7618 9.00869 13.8084 8.38434C13.8506 7.66354 14.0423 6.95938 14.3711 6.3166C14.7 5.67382 15.1589 5.10647 15.7187 4.6505C16.3636 4.10977 17.0455 3.55373 17.8052 3.22033C20.9474 1.84102 24.1389 0.636051 27.6697 0.717731C30.0292 0.772473 32.3923 0.71495 34.7197 1.1906C36.5195 1.55849 38.1559 2.28432 39.5171 3.5466C40.7007 4.64401 41.4044 5.96772 41.4511 7.62117C41.4856 8.83151 41.5919 10.0397 41.6649 11.2248C42.9063 11.5138 44.1003 11.7205 45.2451 12.0835C46.0132 12.33 46.7369 12.6987 47.3878 13.1755C48.3727 13.9009 48.6994 15.0085 48.7475 16.1966C48.8367 18.4055 48.8983 20.6158 49.0083 22.8237C49.1535 25.731 49.3867 28.6349 49.4863 31.5435C49.6001 34.8586 49.6423 38.1774 49.6417 41.4944C49.6417 42.4758 49.3723 43.4556 49.2596 44.439C49.1518 45.3814 48.5343 45.8334 47.7352 46.1472C45.9203 46.87 44.0277 47.3799 42.0955 47.6668C37.4505 48.3151 32.7339 48.2528 28.1076 47.4823C27.0973 47.3202 26.113 46.9948 25.0315 46.723C24.8733 46.8524 24.6436 47.0312 24.4238 47.2211C22.1345 49.1983 19.4567 50.1862 16.4573 50.3825C13.0289 50.6069 9.77433 50.0013 6.74783 48.3461C4.09114 46.8931 2.27414 44.7511 1.64009 41.7444C0.115732 34.5177 4.74351 27.1452 11.8944 25.3271C12.4515 25.1855 12.9573 24.8448 13.514 24.6996C14.2138 24.5172 14.9567 24.2868 15.6535 24.3547C16.6664 24.4545 17.6578 24.7952 18.6545 25.048C19.0705 25.1534 19.4765 25.2968 19.9554 25.4437C20.075 23.3547 20.191 21.3458 20.3134 19.2208ZM15.3935 47.906C15.9151 47.8455 16.7681 47.8097 17.5933 47.6396C21.4252 46.8491 24.0589 44.7446 24.9531 40.7877C25.2996 39.2752 25.3371 37.7082 25.063 36.1808C24.4639 32.8075 22.7409 30.25 19.6575 28.6896C18.675 28.1924 17.6476 27.7782 16.6205 27.3778C15.5081 26.9519 14.2848 26.9127 13.1474 27.2664C9.04785 28.4476 6.12155 30.9086 4.79892 35.0495C4.44703 36.097 4.21481 37.1808 4.10666 38.2802C3.78683 42.231 5.2166 44.8032 8.65194 46.4349C10.6817 47.3989 12.8306 47.8347 15.3935 47.9058V47.906ZM25.6798 11.2048C28.2798 10.9477 30.7473 10.7914 33.1837 10.4276C34.527 10.2174 35.835 9.82216 37.0699 9.25309C38.5468 8.57852 38.7052 7.34145 37.6611 6.09382C37.4652 5.82539 37.2212 5.59565 36.9414 5.41623C36.071 4.9505 35.2128 4.38175 34.2755 4.13649C30.8802 3.24235 27.3423 3.02455 23.8632 3.49552C21.9506 3.75242 20.1131 4.27529 18.4563 5.30826C17.5397 5.88003 16.7026 6.54813 16.2412 7.56192C15.8183 8.4908 16.0257 9.24942 16.9325 9.71322C17.6127 10.0801 18.3485 10.3326 19.1106 10.4606C21.3321 10.7699 23.5684 10.9738 25.6798 11.2046V11.2048ZM39.0173 11.6177C37.6514 12.021 36.4389 12.4572 35.1908 12.732C31.9343 13.4488 28.6218 13.56 25.3016 13.4684C22.0211 13.3779 18.7532 13.191 15.711 11.7012V15.5466C16.6252 16.1807 17.3192 16.4979 18.7002 16.6563C20.8567 16.9037 23.0195 17.1343 25.1861 17.2492C29.0173 17.4578 32.8572 17.0374 36.5527 16.0046C37.4611 15.751 38.3682 15.4494 39.018 14.9607L39.0173 11.6177ZM46.7236 26.2808C44.9759 27.0636 43.4759 27.861 41.8917 28.4205C38.0242 29.7862 34.007 29.7933 29.9824 29.4418C28.3779 29.3015 26.7858 29.0177 25.2195 28.8034C25.6826 29.547 26.2134 30.2972 26.6348 31.1045C27.0561 31.9118 27.3712 32.7814 27.7684 33.7069C28.1893 33.7702 28.6552 33.8767 29.1261 33.9052C33.4736 34.1733 37.8354 33.7261 42.0382 32.5819C43.4124 32.2086 44.7199 31.5851 46.049 31.0536C46.3848 30.9192 46.7268 30.7418 46.7251 30.2778C46.7203 28.9614 46.7236 27.6452 46.7236 26.2806V26.2808ZM22.8544 25.8418C23.6548 26.0946 24.4783 26.4349 25.3354 26.6116C29.2811 27.4218 33.3363 27.5517 37.3259 26.9961C40.3046 26.5907 42.9815 25.3862 45.4098 23.6319C45.7188 23.4086 46.121 23.0931 46.1682 22.7724C46.2802 22.0197 46.2042 21.2391 46.2042 20.4537C46.1059 20.4693 46.0106 20.5008 45.9227 20.5471C43.9201 22.0397 41.618 22.7524 39.1945 23.1746C35.6249 23.7696 31.993 23.8974 28.3906 23.5549C26.5912 23.3989 24.8033 23.1168 23.1152 22.4112C22.8996 22.3215 22.6782 22.25 22.3539 22.1312C22.5256 23.3976 22.6765 24.5187 22.8544 25.8416V25.8418ZM26.4593 44.9276C29.982 46.167 42.5925 46.1959 47.2016 43.1388C47.1009 42.1319 46.9973 41.0987 46.8908 40.039C40.63 42.4049 34.2479 42.6696 27.7667 41.9849C27.3188 42.992 26.8891 43.9595 26.4593 44.9274V44.9276ZM46.7283 33.8728C40.8223 36.0138 34.4889 36.7049 28.2602 35.8886V39.5284C28.3613 39.5972 28.3906 39.6342 28.4223 39.6362C29.0475 39.6754 29.6725 39.7121 30.2973 39.7461C34.4632 39.9728 38.6397 39.5808 42.6908 38.5823C44.1065 38.2493 45.4662 37.7123 46.7274 36.9875L46.7283 33.8728ZM41.8085 14.0139C41.7395 14.1201 41.6576 14.1893 41.6667 14.2406C41.9149 15.538 41.1529 16.296 40.2402 17.0005C39.0386 17.9272 37.6307 18.3554 36.1934 18.6847C32.0134 19.6144 27.713 19.8794 23.4505 19.4699C23.1432 19.443 22.8313 19.4665 22.5218 19.4665C22.7389 19.8102 23.0608 20.0749 23.4399 20.2218C24.1602 20.4998 24.9035 20.7147 25.6611 20.8639C30.146 21.5893 34.7246 21.502 39.1787 20.6063C40.846 20.2815 42.4846 19.7712 43.8249 18.6701C44.4124 18.177 44.9108 17.5865 45.2983 16.9244C45.7022 16.2406 45.491 15.6458 44.8393 15.2076C43.9283 14.5932 42.8938 14.1857 41.8085 14.0139Z" style="fill: rgba(var(--color-primary, 0, 0, 0));"/>
<path d="M14.9511 33.0451V37.0968C15.5416 37.3195 16.0933 37.5033 16.6267 37.7326C18.722 38.6346 19.2375 40.6029 17.8638 42.4137C17.2981 43.1593 16.8509 43.4611 15.1823 44.2275C15.025 45.0277 14.8664 45.8165 14.7157 46.6065C14.6319 47.0469 14.4217 47.3876 13.9411 47.3988C13.434 47.4106 13.2558 46.9971 13.1653 46.5999C12.9957 45.8527 12.8802 45.0928 12.7263 44.2505C12.1127 44.0867 11.4448 43.9134 10.78 43.7287C10.458 43.6529 10.1428 43.5507 9.83772 43.4234C9.22974 43.1397 8.98513 42.6654 9.10151 42.0938C9.20927 41.5637 9.66487 41.2285 10.3664 41.2749C11.1306 41.3247 11.8899 41.4544 12.6319 41.5471C12.9418 40.6925 12.9767 40.1839 12.8422 38.729C12.325 38.535 11.7657 38.3639 11.2394 38.1212C9.11013 37.1391 8.64095 35.0122 10.1498 33.2137C10.7726 32.4305 11.5933 31.8277 12.5269 31.4678C13.0963 31.2613 13.3244 30.9145 13.3459 30.324C13.3511 29.9203 13.4391 29.5221 13.6045 29.154C13.6756 29.0352 13.7741 28.9354 13.8919 28.863C14.0096 28.7906 14.1431 28.7475 14.281 28.7376C14.4145 28.7755 14.5371 28.8447 14.6385 28.9393C14.74 29.0341 14.8173 29.1518 14.8642 29.2824C14.9566 29.7533 15.0071 30.2315 15.0151 30.7115C15.5225 30.827 16.0237 30.9684 16.5166 31.1354C17.303 31.4449 17.6752 32.055 17.5793 32.7503C17.4944 33.3658 17.1597 33.5738 16.5855 33.321C16.083 33.1003 15.6149 32.7731 14.9511 33.0451ZM13.0097 33.8484C11.9321 34.4878 11.3804 35.1678 11.5795 35.6746C11.8166 36.2798 12.3694 36.4324 13.0097 36.5154V33.8484ZM15.0235 41.4417C15.7397 41.1772 16.3959 40.8609 16.3744 40.1352C16.3563 39.5268 15.6858 39.4027 15.1407 39.3199C15.1095 39.3152 15.0733 39.343 14.9355 39.3947C14.9355 39.8182 14.928 40.282 14.939 40.7453C14.9439 40.9481 14.9866 41.1501 15.0235 41.4417Z" style="fill: rgba(var(--color-primary, 0, 0, 0));"/>
</g>
<defs>
<clipPath id="clip0_122_25">
<rect width="48.4914" height="50" fill="white" transform="translate(1.2543 0.5)"/>
</clipPath>
</defs>
</svg>
