<svg width="125" height="34" viewBox="0 0 125 34" fill="none" xmlns="http://www.w3.org/2000/svg">
<path d="M45.6813 11.8494C44.825 11.8494 44.0873 11.6895 43.4682 11.3697C42.8492 11.0498 42.3694 10.5959 42.029 10.0078C41.6988 9.4197 41.5337 8.72328 41.5337 7.91853C41.5337 7.13441 41.6936 6.44831 42.0135 5.86022C42.3436 5.27213 42.7924 4.81301 43.3599 4.48285C43.9377 4.14238 44.5928 3.97215 45.3253 3.97215C45.8618 3.97215 46.3416 4.05984 46.7646 4.23524C47.1979 4.41063 47.5642 4.66341 47.8634 4.99356C48.1729 5.32372 48.4051 5.72609 48.5598 6.20069C48.7249 6.66497 48.8074 7.19116 48.8074 7.77925C48.8074 7.96496 48.7404 8.1094 48.6063 8.21257C48.4825 8.30543 48.3019 8.35186 48.0646 8.35186H43.0968V7.23759H47.4456L47.1979 7.46973C47.1979 6.99513 47.1257 6.59791 46.9813 6.27807C46.8472 5.95823 46.646 5.71578 46.3777 5.5507C46.1198 5.37531 45.7948 5.28761 45.4027 5.28761C44.9694 5.28761 44.598 5.39078 44.2885 5.59713C43.9892 5.79316 43.7571 6.07688 43.592 6.44831C43.4373 6.80942 43.3599 7.24274 43.3599 7.74829V7.85663C43.3599 8.70265 43.5559 9.33716 43.948 9.76018C44.3504 10.1729 44.9384 10.3792 45.7122 10.3792C45.9805 10.3792 46.2797 10.3483 46.6099 10.2864C46.9503 10.2141 47.2702 10.0955 47.5694 9.93041C47.786 9.8066 47.9769 9.75502 48.142 9.77565C48.3071 9.78597 48.436 9.84271 48.5289 9.94589C48.6321 10.0491 48.694 10.178 48.7146 10.3328C48.7352 10.4772 48.7043 10.6268 48.6217 10.7816C48.5495 10.9364 48.4205 11.0705 48.2348 11.184C47.8737 11.411 47.4559 11.5812 46.9813 11.6947C46.517 11.7979 46.0837 11.8494 45.6813 11.8494Z" style="fill: rgba(var(--color-secondary, 0, 0, 0));"/>
<path d="M53.2828 11.8185C53.0249 11.8185 52.7979 11.7514 52.6019 11.6173C52.4161 11.4832 52.2614 11.2768 52.1376 10.9983L49.6769 5.28761C49.584 5.06063 49.5479 4.84912 49.5686 4.65309C49.5995 4.45706 49.6924 4.3023 49.8471 4.18881C50.0122 4.065 50.234 4.0031 50.5126 4.0031C50.7499 4.0031 50.9408 4.05984 51.0852 4.17333C51.2296 4.27651 51.3586 4.4777 51.4721 4.7769L53.5614 9.99232H53.0971L55.2483 4.76142C55.3617 4.47254 55.4907 4.27651 55.6352 4.17333C55.7899 4.05984 55.9963 4.0031 56.2542 4.0031C56.4812 4.0031 56.6617 4.065 56.7959 4.18881C56.93 4.3023 57.0125 4.45706 57.0435 4.65309C57.0744 4.8388 57.0383 5.04515 56.9351 5.27213L54.428 10.9983C54.3145 11.2768 54.1598 11.4832 53.9637 11.6173C53.778 11.7514 53.551 11.8185 53.2828 11.8185Z" style="fill: rgba(var(--color-secondary, 0, 0, 0));"/>
<path d="M61.9583 11.8494C61.102 11.8494 60.3643 11.6895 59.7452 11.3697C59.1262 11.0498 58.6464 10.5959 58.306 10.0078C57.9758 9.4197 57.8107 8.72328 57.8107 7.91853C57.8107 7.13441 57.9707 6.44831 58.2905 5.86022C58.6207 5.27213 59.0695 4.81301 59.6369 4.48285C60.2147 4.14238 60.8698 3.97215 61.6024 3.97215C62.1389 3.97215 62.6186 4.05984 63.0416 4.23524C63.475 4.41063 63.8412 4.66341 64.1404 4.99356C64.45 5.32372 64.6821 5.72609 64.8369 6.20069C65.0019 6.66497 65.0845 7.19116 65.0845 7.77925C65.0845 7.96496 65.0174 8.1094 64.8833 8.21257C64.7595 8.30543 64.5789 8.35186 64.3416 8.35186H59.3738V7.23759H63.7226L63.475 7.46973C63.475 6.99513 63.4027 6.59791 63.2583 6.27807C63.1242 5.95823 62.923 5.71578 62.6547 5.5507C62.3968 5.37531 62.0718 5.28761 61.6797 5.28761C61.2464 5.28761 60.875 5.39078 60.5655 5.59713C60.2663 5.79316 60.0341 6.07688 59.8691 6.44831C59.7143 6.80942 59.6369 7.24274 59.6369 7.74829V7.85663C59.6369 8.70265 59.8329 9.33716 60.225 9.76018C60.6274 10.1729 61.2155 10.3792 61.9893 10.3792C62.2575 10.3792 62.5567 10.3483 62.8869 10.2864C63.2273 10.2141 63.5472 10.0955 63.8464 9.93041C64.063 9.8066 64.2539 9.75502 64.419 9.77565C64.5841 9.78597 64.713 9.84271 64.8059 9.94589C64.9091 10.0491 64.971 10.178 64.9916 10.3328C65.0122 10.4772 64.9813 10.6268 64.8988 10.7816C64.8265 10.9364 64.6976 11.0705 64.5119 11.184C64.1507 11.411 63.7329 11.5812 63.2583 11.6947C62.794 11.7979 62.3607 11.8494 61.9583 11.8494Z" style="fill: rgba(var(--color-secondary, 0, 0, 0));"/>
<path d="M67.6069 11.8185C67.2871 11.8185 67.0395 11.7359 66.8641 11.5709C66.699 11.3955 66.6165 11.1479 66.6165 10.828V4.97809C66.6165 4.65825 66.699 4.41579 66.8641 4.25071C67.0292 4.08564 67.2613 4.0031 67.5605 4.0031C67.8597 4.0031 68.0919 4.08564 68.2569 4.25071C68.422 4.41579 68.5045 4.65825 68.5045 4.97809V5.95308H68.3498C68.4942 5.33404 68.778 4.8646 69.201 4.54476C69.624 4.22492 70.1863 4.03405 70.8878 3.97215C71.1045 3.95151 71.2748 4.00826 71.3986 4.14238C71.5327 4.26619 71.6101 4.46222 71.6307 4.73047C71.6513 4.9884 71.5894 5.19991 71.445 5.36499C71.3109 5.51975 71.1045 5.6126 70.8259 5.64356L70.4855 5.67451C69.8561 5.73641 69.3815 5.93244 69.0617 6.2626C68.7418 6.58243 68.5819 7.0364 68.5819 7.62449V10.828C68.5819 11.1479 68.4994 11.3955 68.3343 11.5709C68.1692 11.7359 67.9268 11.8185 67.6069 11.8185Z" style="fill: rgba(var(--color-secondary, 0, 0, 0));"/>
<path d="M76.0845 14.6351C75.5274 14.6351 74.9857 14.5835 74.4595 14.4804C73.9437 14.3772 73.4742 14.2173 73.0512 14.0006C72.8552 13.8974 72.7211 13.7736 72.6489 13.6292C72.587 13.4847 72.5663 13.3351 72.587 13.1804C72.6179 13.0359 72.6798 12.907 72.7727 12.7935C72.8758 12.68 72.9996 12.6026 73.1441 12.5613C73.2885 12.5201 73.4381 12.5407 73.5929 12.6232C74.0469 12.8502 74.475 12.9947 74.8774 13.0566C75.2901 13.1288 75.6409 13.1649 75.9298 13.1649C76.621 13.1649 77.1369 12.9947 77.4774 12.6542C77.8282 12.324 78.0036 11.8288 78.0036 11.1685V9.77565H78.1428C77.9881 10.3018 77.6631 10.7248 77.1679 11.0447C76.6829 11.3542 76.131 11.509 75.5119 11.509C74.831 11.509 74.2377 11.3542 73.7322 11.0447C73.2266 10.7248 72.8346 10.2812 72.556 9.71375C72.2774 9.14629 72.1381 8.48598 72.1381 7.73282C72.1381 7.16536 72.2155 6.65466 72.3703 6.20069C72.5354 5.73641 72.7623 5.33919 73.0512 5.00904C73.3504 4.67888 73.7064 4.42611 74.1191 4.25071C74.5421 4.065 75.0064 3.97215 75.5119 3.97215C76.1516 3.97215 76.7087 4.13206 77.1833 4.4519C77.6682 4.76142 77.9829 5.17412 78.1274 5.68998L77.9726 6.07688V4.97809C77.9726 4.65825 78.0551 4.41579 78.2202 4.25071C78.3956 4.08564 78.6329 4.0031 78.9321 4.0031C79.2416 4.0031 79.4789 4.08564 79.644 4.25071C79.8091 4.41579 79.8916 4.65825 79.8916 4.97809V10.9364C79.8916 12.1641 79.5666 13.0875 78.9166 13.7066C78.2666 14.3256 77.3226 14.6351 76.0845 14.6351ZM76.0381 10.0387C76.4405 10.0387 76.7861 9.94589 77.075 9.76018C77.3639 9.57446 77.5857 9.31137 77.7405 8.9709C77.9055 8.62011 77.9881 8.20742 77.9881 7.73282C77.9881 7.02092 77.8127 6.46378 77.4619 6.06141C77.1111 5.64871 76.6365 5.44237 76.0381 5.44237C75.6357 5.44237 75.2901 5.53522 75.0012 5.72094C74.7123 5.90665 74.4853 6.16974 74.3203 6.51021C74.1655 6.85069 74.0881 7.25822 74.0881 7.73282C74.0881 8.44471 74.2635 9.00701 74.6143 9.4197C74.9651 9.8324 75.4397 10.0387 76.0381 10.0387Z" style="fill: rgba(var(--color-secondary, 0, 0, 0));"/>
<path d="M84.4805 11.8494C83.6242 11.8494 82.9793 11.607 82.546 11.1221C82.1127 10.6268 81.896 9.90462 81.896 8.95542V1.63527C81.896 1.31543 81.9785 1.07297 82.1436 0.907895C82.3087 0.742817 82.546 0.660278 82.8555 0.660278C83.165 0.660278 83.4023 0.742817 83.5674 0.907895C83.7428 1.07297 83.8305 1.31543 83.8305 1.63527V8.86257C83.8305 9.33716 83.9285 9.68795 84.1246 9.91494C84.3309 10.1419 84.6198 10.2554 84.9912 10.2554C85.0738 10.2554 85.1511 10.2554 85.2234 10.2554C85.2956 10.2451 85.3678 10.2348 85.44 10.2245C85.5845 10.2038 85.6825 10.2451 85.7341 10.3483C85.7857 10.4411 85.8114 10.6371 85.8114 10.9364C85.8114 11.1943 85.7599 11.3955 85.6567 11.5399C85.5535 11.6844 85.3833 11.7721 85.146 11.803C85.0428 11.8133 84.9345 11.8236 84.821 11.834C84.7075 11.8443 84.594 11.8494 84.4805 11.8494Z" style="fill: rgba(var(--color-secondary, 0, 0, 0));"/>
<path d="M89.3297 11.8494C88.7829 11.8494 88.2928 11.7463 87.8595 11.5399C87.4365 11.3233 87.1012 11.0344 86.8535 10.6733C86.6162 10.3122 86.4976 9.90462 86.4976 9.45065C86.4976 8.89352 86.642 8.45503 86.9309 8.13519C87.2198 7.80504 87.6892 7.56774 88.3392 7.4233C88.9892 7.27885 89.861 7.20663 90.9547 7.20663H91.7285V8.32091H90.9702C90.3305 8.32091 89.8198 8.35186 89.438 8.41376C89.0563 8.47567 88.7829 8.584 88.6178 8.73876C88.463 8.8832 88.3857 9.08955 88.3857 9.3578C88.3857 9.69827 88.5043 9.97684 88.7416 10.1935C88.9789 10.4102 89.3091 10.5185 89.7321 10.5185C90.0726 10.5185 90.3718 10.4411 90.6297 10.2864C90.8979 10.1213 91.1094 9.89946 91.2642 9.62089C91.419 9.34232 91.4963 9.02248 91.4963 8.66138V6.88164C91.4963 6.36577 91.3829 5.99435 91.1559 5.76736C90.9289 5.54038 90.5471 5.42689 90.0106 5.42689C89.7114 5.42689 89.3864 5.463 89.0357 5.53522C88.6952 5.60744 88.3341 5.73125 87.9523 5.90665C87.7563 5.9995 87.5809 6.0253 87.4262 5.98403C87.2817 5.94276 87.1682 5.86022 87.0857 5.73641C87.0031 5.60229 86.9619 5.45784 86.9619 5.30308C86.9619 5.14832 87.0031 4.99872 87.0857 4.85428C87.1682 4.69952 87.3075 4.58603 87.5035 4.51381C87.9781 4.31778 88.4321 4.17849 88.8654 4.09595C89.3091 4.01342 89.7114 3.97215 90.0725 3.97215C90.8154 3.97215 91.4241 4.08564 91.8987 4.31262C92.3836 4.5396 92.7447 4.88523 92.982 5.34951C93.2193 5.80347 93.338 6.39156 93.338 7.11378V10.828C93.338 11.1479 93.2606 11.3955 93.1058 11.5709C92.9511 11.7359 92.7293 11.8185 92.4404 11.8185C92.1515 11.8185 91.9245 11.7359 91.7594 11.5709C91.6047 11.3955 91.5273 11.1479 91.5273 10.828V10.0852H91.6511C91.5789 10.4463 91.4344 10.761 91.2178 11.0292C91.0114 11.2871 90.7483 11.4883 90.4285 11.6328C90.1087 11.7772 89.7424 11.8494 89.3297 11.8494Z" style="fill: rgba(var(--color-secondary, 0, 0, 0));"/>
<path d="M98.211 11.8494C97.5507 11.8494 96.9678 11.6895 96.4622 11.3697C95.967 11.0498 95.5801 10.5959 95.3015 10.0078C95.0229 9.40939 94.8837 8.70781 94.8837 7.90305C94.8837 7.08798 95.0229 6.39156 95.3015 5.81379C95.5801 5.2257 95.967 4.77174 96.4622 4.4519C96.9678 4.13206 97.5507 3.97215 98.211 3.97215C98.8404 3.97215 99.3872 4.12691 99.8515 4.43643C100.326 4.74595 100.646 5.15348 100.811 5.65903H100.641V1.63527C100.641 1.31543 100.723 1.07297 100.888 0.907895C101.053 0.742817 101.291 0.660278 101.6 0.660278C101.91 0.660278 102.147 0.742817 102.312 0.907895C102.488 1.07297 102.575 1.31543 102.575 1.63527V10.828C102.575 11.1479 102.493 11.3955 102.328 11.5709C102.163 11.7359 101.925 11.8185 101.616 11.8185C101.306 11.8185 101.069 11.7359 100.904 11.5709C100.739 11.3955 100.656 11.1479 100.656 10.828V9.62089L100.826 10.0852C100.672 10.6217 100.357 11.0498 99.8824 11.3697C99.4078 11.6895 98.8507 11.8494 98.211 11.8494ZM98.7527 10.3792C99.1344 10.3792 99.4697 10.2864 99.7586 10.1006C100.047 9.91494 100.269 9.64153 100.424 9.28042C100.589 8.90899 100.672 8.44987 100.672 7.90305C100.672 7.07767 100.496 6.46378 100.146 6.06141C99.7947 5.64871 99.3304 5.44237 98.7527 5.44237C98.3709 5.44237 98.0356 5.53522 97.7467 5.72094C97.4578 5.89633 97.2309 6.16974 97.0658 6.54116C96.911 6.90227 96.8336 7.35623 96.8336 7.90305C96.8336 8.71812 97.009 9.33716 97.3598 9.76018C97.7106 10.1729 98.1749 10.3792 98.7527 10.3792Z" style="fill: rgba(var(--color-secondary, 0, 0, 0));"/>
<path d="M108.311 11.8494C107.454 11.8494 106.717 11.6895 106.098 11.3697C105.479 11.0498 104.999 10.5959 104.658 10.0078C104.328 9.4197 104.163 8.72328 104.163 7.91853C104.163 7.13441 104.323 6.44831 104.643 5.86022C104.973 5.27213 105.422 4.81301 105.989 4.48285C106.567 4.14238 107.222 3.97215 107.955 3.97215C108.491 3.97215 108.971 4.05984 109.394 4.23524C109.827 4.41063 110.194 4.66341 110.493 4.99356C110.802 5.32372 111.035 5.72609 111.189 6.20069C111.354 6.66497 111.437 7.19116 111.437 7.77925C111.437 7.96496 111.37 8.1094 111.236 8.21257C111.112 8.30543 110.931 8.35186 110.694 8.35186H105.726V7.23759H110.075L109.827 7.46973C109.827 6.99513 109.755 6.59791 109.611 6.27807C109.477 5.95823 109.275 5.71578 109.007 5.5507C108.749 5.37531 108.424 5.28761 108.032 5.28761C107.599 5.28761 107.227 5.39078 106.918 5.59713C106.619 5.79316 106.387 6.07688 106.222 6.44831C106.067 6.80942 105.989 7.24274 105.989 7.74829V7.85663C105.989 8.70265 106.185 9.33716 106.577 9.76018C106.98 10.1729 107.568 10.3792 108.342 10.3792C108.61 10.3792 108.909 10.3483 109.239 10.2864C109.58 10.2141 109.9 10.0955 110.199 9.93041C110.416 9.8066 110.606 9.75502 110.771 9.77565C110.937 9.78597 111.066 9.84271 111.158 9.94589C111.262 10.0491 111.323 10.178 111.344 10.3328C111.365 10.4772 111.334 10.6268 111.251 10.7816C111.179 10.9364 111.05 11.0705 110.864 11.184C110.503 11.411 110.085 11.5812 109.611 11.6947C109.146 11.7979 108.713 11.8494 108.311 11.8494Z" style="fill: rgba(var(--color-secondary, 0, 0, 0));"/>
<path d="M115.739 11.8494C115.296 11.8494 114.826 11.803 114.331 11.7102C113.836 11.6173 113.392 11.4574 113 11.2304C112.835 11.1272 112.716 11.0086 112.644 10.8744C112.582 10.73 112.556 10.5907 112.567 10.4566C112.587 10.3122 112.639 10.1883 112.721 10.0852C112.814 9.982 112.928 9.91494 113.062 9.88398C113.206 9.85303 113.361 9.87882 113.526 9.96136C113.939 10.1574 114.326 10.2967 114.687 10.3792C115.048 10.4514 115.404 10.4875 115.755 10.4875C116.25 10.4875 116.616 10.405 116.853 10.2399C117.101 10.0645 117.225 9.83756 117.225 9.55899C117.225 9.32169 117.142 9.14114 116.977 9.01733C116.822 8.8832 116.585 8.78519 116.265 8.72328L114.718 8.42924C114.078 8.30543 113.588 8.07329 113.248 7.73282C112.917 7.38203 112.752 6.93322 112.752 6.3864C112.752 5.89117 112.886 5.463 113.155 5.10189C113.433 4.74079 113.815 4.46222 114.3 4.26619C114.785 4.07016 115.342 3.97215 115.971 3.97215C116.425 3.97215 116.848 4.02373 117.24 4.12691C117.643 4.21976 118.03 4.36936 118.401 4.57571C118.556 4.65825 118.659 4.76658 118.711 4.90071C118.772 5.03483 118.788 5.17412 118.757 5.31856C118.726 5.45268 118.664 5.57649 118.571 5.68998C118.478 5.79316 118.36 5.86022 118.215 5.89117C118.081 5.91181 117.926 5.88085 117.751 5.79832C117.431 5.63324 117.122 5.51459 116.822 5.44237C116.534 5.37015 116.255 5.33404 115.987 5.33404C115.481 5.33404 115.105 5.42173 114.857 5.59713C114.62 5.77252 114.501 6.00466 114.501 6.29355C114.501 6.51021 114.573 6.69077 114.718 6.83521C114.862 6.97965 115.084 7.07767 115.383 7.12925L116.931 7.4233C117.601 7.54711 118.107 7.77409 118.447 8.10424C118.798 8.4344 118.974 8.87804 118.974 9.43518C118.974 10.1883 118.68 10.7816 118.092 11.2149C117.503 11.6379 116.719 11.8494 115.739 11.8494Z" style="fill: rgba(var(--color-secondary, 0, 0, 0));"/>
<path d="M45.4492 29.4921C44.6547 29.4921 43.9635 29.3322 43.3754 29.0123C42.7873 28.6822 42.3333 28.2179 42.0135 27.6195C41.6936 27.0211 41.5337 26.3195 41.5337 25.5148C41.5337 24.906 41.6214 24.3644 41.7968 23.8898C41.9825 23.4049 42.2456 22.9973 42.5861 22.6672C42.9266 22.3267 43.3393 22.0688 43.8242 21.8934C44.3091 21.7077 44.8507 21.6148 45.4492 21.6148C45.7896 21.6148 46.1559 21.6612 46.548 21.7541C46.9503 21.847 47.3269 22.0017 47.6777 22.2184C47.8428 22.3216 47.9511 22.4454 48.0027 22.5898C48.0543 22.7342 48.0646 22.8838 48.0336 23.0386C48.0027 23.183 47.9356 23.312 47.8325 23.4255C47.7396 23.5287 47.621 23.5957 47.4765 23.6267C47.3321 23.6473 47.1722 23.6112 46.9968 23.5184C46.7698 23.3842 46.5376 23.2862 46.3003 23.2243C46.063 23.1521 45.8361 23.116 45.6194 23.116C45.2789 23.116 44.9797 23.1727 44.7218 23.2862C44.4638 23.3894 44.242 23.5442 44.0563 23.7505C43.8809 23.9465 43.7468 24.1941 43.6539 24.4934C43.5611 24.7926 43.5147 25.1382 43.5147 25.5302C43.5147 26.2937 43.6952 26.8973 44.0563 27.3409C44.4277 27.7743 44.9488 27.9909 45.6194 27.9909C45.8361 27.9909 46.0579 27.96 46.2849 27.8981C46.5222 27.8362 46.7595 27.7382 46.9968 27.604C47.1722 27.5112 47.3269 27.4802 47.461 27.5112C47.6055 27.5421 47.7241 27.6143 47.817 27.7278C47.9098 27.831 47.9666 27.96 47.9872 28.1147C48.0079 28.2592 47.9872 28.4036 47.9253 28.5481C47.8737 28.6925 47.7706 28.8112 47.6158 28.904C47.2753 29.1104 46.9142 29.26 46.5325 29.3528C46.1507 29.4457 45.7896 29.4921 45.4492 29.4921Z" style="fill: rgba(var(--color-secondary, 0, 0, 0));"/>
<path d="M50.2418 29.4612C49.9219 29.4612 49.6743 29.3786 49.4989 29.2135C49.3338 29.0381 49.2513 28.7905 49.2513 28.4707V22.6208C49.2513 22.3009 49.3338 22.0585 49.4989 21.8934C49.664 21.7283 49.8961 21.6458 50.1953 21.6458C50.4945 21.6458 50.7267 21.7283 50.8918 21.8934C51.0568 22.0585 51.1394 22.3009 51.1394 22.6208V23.5957H50.9846C51.1291 22.9767 51.4128 22.5073 51.8358 22.1874C52.2588 21.8676 52.8211 21.6767 53.5227 21.6148C53.7393 21.5942 53.9096 21.6509 54.0334 21.785C54.1675 21.9089 54.2449 22.1049 54.2655 22.3731C54.2862 22.6311 54.2243 22.8426 54.0798 23.0077C53.9457 23.1624 53.7393 23.2553 53.4608 23.2862L53.1203 23.3172C52.4909 23.3791 52.0163 23.5751 51.6965 23.9053C51.3767 24.2251 51.2167 24.6791 51.2167 25.2672V28.4707C51.2167 28.7905 51.1342 29.0381 50.9691 29.2135C50.8041 29.3786 50.5616 29.4612 50.2418 29.4612Z" style="fill: rgba(var(--color-secondary, 0, 0, 0));"/>
<path d="M58.9205 29.4921C58.0642 29.4921 57.3265 29.3322 56.7075 29.0123C56.0884 28.6925 55.6087 28.2385 55.2682 27.6505C54.938 27.0624 54.773 26.3659 54.773 25.5612C54.773 24.7771 54.9329 24.091 55.2527 23.5029C55.5829 22.9148 56.0317 22.4557 56.5991 22.1255C57.1769 21.785 57.8321 21.6148 58.5646 21.6148C59.1011 21.6148 59.5809 21.7025 60.0039 21.8779C60.4372 22.0533 60.8035 22.3061 61.1027 22.6362C61.4122 22.9664 61.6443 23.3688 61.7991 23.8434C61.9642 24.3076 62.0467 24.8338 62.0467 25.4219C62.0467 25.6076 61.9796 25.7521 61.8455 25.8552C61.7217 25.9481 61.5411 25.9945 61.3038 25.9945H56.336V24.8803H60.6848L60.4372 25.1124C60.4372 24.6378 60.365 24.2406 60.2205 23.9207C60.0864 23.6009 59.8852 23.3584 59.617 23.1934C59.359 23.018 59.034 22.9303 58.642 22.9303C58.2086 22.9303 57.8372 23.0334 57.5277 23.2398C57.2285 23.4358 56.9964 23.7196 56.8313 24.091C56.6765 24.4521 56.5991 24.8854 56.5991 25.391V25.4993C56.5991 26.3453 56.7952 26.9798 57.1872 27.4028C57.5896 27.8155 58.1777 28.0219 58.9515 28.0219C59.2197 28.0219 59.5189 27.9909 59.8491 27.929C60.1896 27.8568 60.5094 27.7382 60.8086 27.5731C61.0253 27.4493 61.2161 27.3977 61.3812 27.4183C61.5463 27.4286 61.6753 27.4854 61.7681 27.5886C61.8713 27.6917 61.9332 27.8207 61.9538 27.9755C61.9745 28.1199 61.9435 28.2695 61.861 28.4243C61.7888 28.579 61.6598 28.7131 61.4741 28.8266C61.113 29.0536 60.6951 29.2239 60.2205 29.3373C59.7562 29.4405 59.3229 29.4921 58.9205 29.4921Z" style="fill: rgba(var(--color-secondary, 0, 0, 0));"/>
<path d="M66.4882 29.4921C65.8279 29.4921 65.245 29.3322 64.7394 29.0123C64.2442 28.6925 63.8573 28.2385 63.5787 27.6505C63.3001 27.0521 63.1608 26.3505 63.1608 25.5457C63.1608 24.7307 63.3001 24.0342 63.5787 23.4565C63.8573 22.8684 64.2442 22.4144 64.7394 22.0946C65.245 21.7747 65.8279 21.6148 66.4882 21.6148C67.1175 21.6148 67.6644 21.7696 68.1286 22.0791C68.6032 22.3886 68.9231 22.7961 69.0882 23.3017H68.9179V19.2779C68.9179 18.9581 69.0005 18.7156 69.1655 18.5506C69.3306 18.3855 69.5679 18.3029 69.8774 18.3029C70.187 18.3029 70.4243 18.3855 70.5893 18.5506C70.7647 18.7156 70.8524 18.9581 70.8524 19.2779V28.4707C70.8524 28.7905 70.7699 29.0381 70.6048 29.2135C70.4397 29.3786 70.2024 29.4612 69.8929 29.4612C69.5834 29.4612 69.3461 29.3786 69.181 29.2135C69.0159 29.0381 68.9334 28.7905 68.9334 28.4707V27.2636L69.1036 27.7278C68.9489 28.2643 68.6342 28.6925 68.1596 29.0123C67.685 29.3322 67.1279 29.4921 66.4882 29.4921ZM67.0299 28.0219C67.4116 28.0219 67.7469 27.929 68.0358 27.7433C68.3247 27.5576 68.5465 27.2842 68.7013 26.9231C68.8663 26.5517 68.9489 26.0925 68.9489 25.5457C68.9489 24.7203 68.7735 24.1065 68.4227 23.7041C68.0719 23.2914 67.6076 23.085 67.0299 23.085C66.6481 23.085 66.3128 23.1779 66.0239 23.3636C65.735 23.539 65.508 23.8124 65.343 24.1838C65.1882 24.5449 65.1108 24.9989 65.1108 25.5457C65.1108 26.3608 65.2862 26.9798 65.637 27.4028C65.9878 27.8155 66.4521 28.0219 67.0299 28.0219Z" style="fill: rgba(var(--color-secondary, 0, 0, 0));"/>
<path d="M73.8178 29.4457C73.5083 29.4457 73.271 29.3528 73.1059 29.1671C72.9408 28.9814 72.8583 28.7235 72.8583 28.3933V22.7136C72.8583 22.3731 72.9408 22.1152 73.1059 21.9398C73.271 21.7541 73.5083 21.6612 73.8178 21.6612C74.1273 21.6612 74.3646 21.7541 74.5297 21.9398C74.7051 22.1152 74.7928 22.3731 74.7928 22.7136V28.3933C74.7928 28.7235 74.7102 28.9814 74.5452 29.1671C74.3801 29.3528 74.1376 29.4457 73.8178 29.4457ZM73.8178 20.222C73.4567 20.222 73.1729 20.1343 72.9666 19.9589C72.7706 19.7732 72.6726 19.5204 72.6726 19.2006C72.6726 18.8704 72.7706 18.6176 72.9666 18.4422C73.1729 18.2668 73.4567 18.1791 73.8178 18.1791C74.1892 18.1791 74.4729 18.2668 74.669 18.4422C74.865 18.6176 74.963 18.8704 74.963 19.2006C74.963 19.5204 74.865 19.7732 74.669 19.9589C74.4729 20.1343 74.1892 20.222 73.8178 20.222Z" style="fill: rgba(var(--color-secondary, 0, 0, 0));"/>
<path d="M80.2695 29.4921C79.5988 29.4921 79.0365 29.3786 78.5826 29.1516C78.1389 28.9247 77.8088 28.5945 77.5921 28.1612C77.3754 27.7175 77.2671 27.1707 77.2671 26.5207V23.2243H76.4624C76.2147 23.2243 76.0239 23.1624 75.8897 23.0386C75.7556 22.9045 75.6886 22.7239 75.6886 22.4969C75.6886 22.2596 75.7556 22.0791 75.8897 21.9553C76.0239 21.8315 76.2147 21.7696 76.4624 21.7696H77.2671V20.3613C77.2671 20.0414 77.3497 19.799 77.5147 19.6339C77.6901 19.4688 77.9326 19.3863 78.2421 19.3863C78.5516 19.3863 78.7889 19.4688 78.954 19.6339C79.1191 19.799 79.2016 20.0414 79.2016 20.3613V21.7696H80.8421C81.0897 21.7696 81.2806 21.8315 81.4147 21.9553C81.5488 22.0791 81.6159 22.2596 81.6159 22.4969C81.6159 22.7239 81.5488 22.9045 81.4147 23.0386C81.2806 23.1624 81.0897 23.2243 80.8421 23.2243H79.2016V26.4124C79.2016 26.9076 79.3099 27.279 79.5266 27.5267C79.7433 27.7743 80.0941 27.8981 80.579 27.8981C80.7544 27.8981 80.9091 27.8826 81.0433 27.8516C81.1774 27.8207 81.296 27.8001 81.3992 27.7897C81.523 27.7794 81.6262 27.8207 81.7087 27.9136C81.7913 27.9961 81.8325 28.1715 81.8325 28.4397C81.8325 28.6461 81.7964 28.8318 81.7242 28.9969C81.6623 29.1516 81.5437 29.26 81.3683 29.3219C81.2341 29.3631 81.0587 29.3992 80.8421 29.4302C80.6254 29.4715 80.4345 29.4921 80.2695 29.4921Z" style="fill: rgba(var(--color-secondary, 0, 0, 0));"/>
<path d="M89.6831 29.4921C89.0538 29.4921 88.5327 29.3786 88.12 29.1516C87.7073 28.9143 87.3978 28.5635 87.1915 28.0993C86.9954 27.635 86.8974 27.0572 86.8974 26.3659V22.6208C86.8974 22.2906 86.98 22.0481 87.145 21.8934C87.3101 21.7283 87.5474 21.6458 87.8569 21.6458C88.1665 21.6458 88.4038 21.7283 88.5688 21.8934C88.7442 22.0481 88.8319 22.2906 88.8319 22.6208V26.3969C88.8319 26.9334 88.9403 27.3306 89.1569 27.5886C89.3736 27.8465 89.7192 27.9755 90.1938 27.9755C90.7097 27.9755 91.1327 27.8001 91.4629 27.4493C91.793 27.0882 91.9581 26.6136 91.9581 26.0255V22.6208C91.9581 22.2906 92.0406 22.0481 92.2057 21.8934C92.3708 21.7283 92.6081 21.6458 92.9176 21.6458C93.2271 21.6458 93.4644 21.7283 93.6295 21.8934C93.8049 22.0481 93.8926 22.2906 93.8926 22.6208V28.4707C93.8926 29.131 93.5779 29.4612 92.9486 29.4612C92.6493 29.4612 92.4172 29.3786 92.2521 29.2135C92.0871 29.0381 92.0045 28.7905 92.0045 28.4707V27.2945L92.2212 27.7588C92.0045 28.3159 91.6744 28.7441 91.2307 29.0433C90.7974 29.3425 90.2815 29.4921 89.6831 29.4921Z" style="fill: rgba(var(--color-secondary, 0, 0, 0));"/>
<path d="M96.8656 29.4612C96.556 29.4612 96.3187 29.3786 96.1537 29.2135C95.9886 29.0381 95.906 28.7905 95.906 28.4707V22.6208C95.906 22.3009 95.9886 22.0585 96.1537 21.8934C96.3187 21.7283 96.5509 21.6458 96.8501 21.6458C97.1493 21.6458 97.3814 21.7283 97.5465 21.8934C97.7116 22.0585 97.7941 22.3009 97.7941 22.6208V23.6731L97.6239 23.2862C97.8509 22.7394 98.2016 22.3267 98.6762 22.0481C99.1612 21.7593 99.708 21.6148 100.317 21.6148C100.925 21.6148 101.426 21.7283 101.818 21.9553C102.21 22.1823 102.504 22.5279 102.7 22.9922C102.896 23.4461 102.994 24.0239 102.994 24.7255V28.4707C102.994 28.7905 102.912 29.0381 102.746 29.2135C102.581 29.3786 102.344 29.4612 102.035 29.4612C101.725 29.4612 101.483 29.3786 101.307 29.2135C101.142 29.0381 101.06 28.7905 101.06 28.4707V24.8183C101.06 24.2303 100.946 23.8021 100.719 23.5338C100.502 23.2656 100.162 23.1315 99.6977 23.1315C99.1302 23.1315 98.6762 23.312 98.3358 23.6731C98.0056 24.0239 97.8405 24.4934 97.8405 25.0814V28.4707C97.8405 29.131 97.5155 29.4612 96.8656 29.4612Z" style="fill: rgba(var(--color-secondary, 0, 0, 0));"/>
<path d="M105.918 29.4457C105.609 29.4457 105.372 29.3528 105.207 29.1671C105.041 28.9814 104.959 28.7235 104.959 28.3933V22.7136C104.959 22.3731 105.041 22.1152 105.207 21.9398C105.372 21.7541 105.609 21.6612 105.918 21.6612C106.228 21.6612 106.465 21.7541 106.63 21.9398C106.806 22.1152 106.893 22.3731 106.893 22.7136V28.3933C106.893 28.7235 106.811 28.9814 106.646 29.1671C106.481 29.3528 106.238 29.4457 105.918 29.4457ZM105.918 20.222C105.557 20.222 105.274 20.1343 105.067 19.9589C104.871 19.7732 104.773 19.5204 104.773 19.2006C104.773 18.8704 104.871 18.6176 105.067 18.4422C105.274 18.2668 105.557 18.1791 105.918 18.1791C106.29 18.1791 106.574 18.2668 106.77 18.4422C106.966 18.6176 107.064 18.8704 107.064 19.2006C107.064 19.5204 106.966 19.7732 106.77 19.9589C106.574 20.1343 106.29 20.222 105.918 20.222Z" style="fill: rgba(var(--color-secondary, 0, 0, 0));"/>
<path d="M112.355 29.4921C111.571 29.4921 110.89 29.3322 110.312 29.0123C109.734 28.6925 109.285 28.2385 108.965 27.6505C108.646 27.0521 108.486 26.3505 108.486 25.5457C108.486 24.937 108.573 24.3953 108.749 23.9207C108.934 23.4358 109.198 23.0231 109.538 22.6827C109.878 22.3319 110.286 22.0688 110.761 21.8934C111.235 21.7077 111.767 21.6148 112.355 21.6148C113.139 21.6148 113.82 21.7747 114.397 22.0946C114.975 22.4144 115.424 22.8684 115.744 23.4565C116.064 24.0445 116.224 24.741 116.224 25.5457C116.224 26.1544 116.131 26.7013 115.945 27.1862C115.77 27.6711 115.512 28.0889 115.171 28.4397C114.831 28.7802 114.423 29.0433 113.949 29.229C113.474 29.4044 112.943 29.4921 112.355 29.4921ZM112.355 28.0219C112.736 28.0219 113.072 27.929 113.361 27.7433C113.649 27.5576 113.871 27.2842 114.026 26.9231C114.191 26.5517 114.274 26.0925 114.274 25.5457C114.274 24.7203 114.098 24.1065 113.747 23.7041C113.397 23.2914 112.932 23.085 112.355 23.085C111.973 23.085 111.638 23.1779 111.349 23.3636C111.06 23.539 110.833 23.8124 110.668 24.1838C110.513 24.5449 110.436 24.9989 110.436 25.5457C110.436 26.3608 110.611 26.9798 110.962 27.4028C111.313 27.8155 111.777 28.0219 112.355 28.0219Z" style="fill: rgba(var(--color-secondary, 0, 0, 0));"/>
<path d="M118.78 29.4612C118.47 29.4612 118.233 29.3786 118.068 29.2135C117.903 29.0381 117.82 28.7905 117.82 28.4707V22.6208C117.82 22.3009 117.903 22.0585 118.068 21.8934C118.233 21.7283 118.465 21.6458 118.764 21.6458C119.064 21.6458 119.296 21.7283 119.461 21.8934C119.626 22.0585 119.708 22.3009 119.708 22.6208V23.6731L119.538 23.2862C119.765 22.7394 120.116 22.3267 120.591 22.0481C121.075 21.7593 121.622 21.6148 122.231 21.6148C122.84 21.6148 123.34 21.7283 123.732 21.9553C124.124 22.1823 124.418 22.5279 124.614 22.9922C124.81 23.4461 124.908 24.0239 124.908 24.7255V28.4707C124.908 28.7905 124.826 29.0381 124.661 29.2135C124.496 29.3786 124.258 29.4612 123.949 29.4612C123.639 29.4612 123.397 29.3786 123.221 29.2135C123.056 29.0381 122.974 28.7905 122.974 28.4707V24.8183C122.974 24.2303 122.86 23.8021 122.633 23.5338C122.417 23.2656 122.076 23.1315 121.612 23.1315C121.044 23.1315 120.591 23.312 120.25 23.6731C119.92 24.0239 119.755 24.4934 119.755 25.0814V28.4707C119.755 29.131 119.43 29.4612 118.78 29.4612Z" style="fill: rgba(var(--color-secondary, 0, 0, 0));"/>
<path fill-rule="evenodd" clip-rule="evenodd" d="M27.6117 6.88583C28.957 6.29423 30.5272 6.90524 31.1188 8.25057C32.2268 10.7704 32.2755 14.5103 29.6495 17.9991C27.0761 21.418 22.1774 24.2904 14.0028 25.9278L14.0012 25.9281C12.939 26.1402 11.305 26.7079 10.0072 27.6365C8.72593 28.5532 8.10696 29.5522 8.10696 30.6787C8.10696 32.1483 6.91556 33.3397 5.4459 33.3397C3.97624 33.3397 2.78485 32.1483 2.78485 30.6787C2.78485 27.2003 4.84398 24.7866 6.91034 23.3082C8.96014 21.8416 11.3433 21.0316 12.9592 20.709C20.4865 19.201 23.9264 16.7527 25.3973 14.7985C26.8157 12.914 26.6142 11.2282 26.2469 10.3929C25.6553 9.04762 26.2663 7.47743 27.6117 6.88583Z" style="fill: rgba(var(--color-secondary, 0, 0, 0));"/>
<path fill-rule="evenodd" clip-rule="evenodd" d="M24.8311 0.978233C26.1775 0.389018 27.7466 1.00282 28.3358 2.34919C29.4405 4.87334 29.4907 8.62187 26.8683 12.1226C24.2965 15.5561 19.3978 18.4433 11.2204 20.0892L11.2188 20.0895C10.158 20.3023 8.5249 20.8723 7.22728 21.8053C5.94763 22.7253 5.3221 23.7327 5.3221 24.8761C5.3221 26.3458 4.13071 27.5372 2.66105 27.5372C1.19139 27.5372 0 26.3458 0 24.8761C0 21.3925 2.05258 18.9708 4.12056 17.484C6.17056 16.0102 8.5546 15.1959 10.1719 14.8714C17.6964 13.3567 21.1363 10.8976 22.6088 8.93191C24.0309 7.03342 23.8309 5.33002 23.4602 4.48293C22.8709 3.13655 23.4847 1.56745 24.8311 0.978233Z" style="fill: rgba(var(--color-secondary, 0, 0, 0));"/>
</svg>
